<svg id="Layer_1" data-name="Layer 1" xmlns="http://www.w3.org/2000/svg" xmlns:xlink="http://www.w3.org/1999/xlink" viewBox="0 0 1072 918.34"><defs><linearGradient id="linear-gradient" x1="-5224.64" y1="2280.81" x2="-5171.49" y2="2218.65" gradientTransform="matrix(-1, -0.01, -0.01, 1, -4837.77, -1798.04)" gradientUnits="userSpaceOnUse"><stop offset="0" stop-color="#f69923"/><stop offset="0.31" stop-color="#f79a23"/><stop offset="0.84" stop-color="#e97826"/></linearGradient><linearGradient id="linear-gradient-2" x1="-5618.04" y1="2287.66" x2="-5238.81" y2="2287.66" gradientTransform="matrix(-1, -0.01, -0.01, 1, -4837.77, -1798.04)" gradientUnits="userSpaceOnUse"><stop offset="0.32" stop-color="#9e2064"/><stop offset="0.63" stop-color="#c92037"/><stop offset="0.75" stop-color="#cd2335"/><stop offset="1" stop-color="#e97826"/></linearGradient><linearGradient id="linear-gradient-3" x1="-5572.26" y1="2249.63" x2="-5346.28" y2="2249.63" gradientTransform="matrix(-1, -0.01, -0.01, 1, -4837.77, -1798.04)" gradientUnits="userSpaceOnUse"><stop offset="0" stop-color="#282662"/><stop offset="0.1" stop-color="#662e8d"/><stop offset="0.79" stop-color="#9f2064"/><stop offset="0.95" stop-color="#cd2032"/></linearGradient><linearGradient id="linear-gradient-4" x1="-5596.74" y1="2291.19" x2="-5217.51" y2="2291.19" xlink:href="#linear-gradient-2"/><linearGradient id="linear-gradient-5" x1="-5569.09" y1="2286.08" x2="-5369.79" y2="2286.08" xlink:href="#linear-gradient-3"/><linearGradient id="linear-gradient-6" x1="-5596.74" y1="2251.96" x2="-5217.51" y2="2251.96" xlink:href="#linear-gradient-2"/><linearGradient id="linear-gradient-7" x1="-5620.27" y1="2253.9" x2="-5241.04" y2="2253.9" xlink:href="#linear-gradient-2"/><linearGradient id="linear-gradient-8" x1="-5596.74" y1="2240.28" x2="-5217.51" y2="2240.28" xlink:href="#linear-gradient-2"/><linearGradient id="linear-gradient-9" x1="-5596.74" y1="2241.62" x2="-5217.51" y2="2241.62" xlink:href="#linear-gradient-2"/><linearGradient id="linear-gradient-10" x1="-5383.7" y1="2241.89" x2="-5340.41" y2="2241.89" xlink:href="#linear-gradient-2"/></defs><title>Sling Logo - With URL</title><path d="M415.41,427.88V255l-36.64-.32V443.7q0,33.89,24.93,33.89c13.7,0,18.88-5.26,24.53-15.93C416.68,458.15,415.41,446.84,415.41,427.88Z" style="fill:#00678c"/><polygon points="452.96 350.86 467.98 350.86 467.98 475.36 503.94 475.36 503.94 321.39 452.96 321.39 452.96 350.86" style="fill:#00678c"/><path d="M486.3,261.73a19.91,19.91,0,0,0-14.58,6.09,21,21,0,0,0,0,29.47,20.43,20.43,0,0,0,28.89.26l.26-.26a21,21,0,0,0,0-29.47A19.91,19.91,0,0,0,486.3,261.73Z" style="fill:#00678c"/><path d="M623.14,317.93q-28.59,0-43.25,17V320.75H547.27V473.09h35.84V363a39,39,0,0,1,14.14-11,38.47,38.47,0,0,1,16.89-4.42q17.08,0,24.65,9T646.31,385v88h35.84V379.66q0-29.15-15.93-45.44T623.14,317.93Z" style="fill:#00678c"/><path d="M346.85,577l-2.77-.73-.18,0-1.25-.34c-21.81-5.87-37-11.75-45.1-17.46a33.85,33.85,0,0,1-7-6.59h-67V503.43a170.49,170.49,0,0,1-31.46-12.54V584H377.77c-4.64-.92-9.31-1.89-14-2.92C357.58,579.68,352,578.35,346.85,577Z" style="fill:#00678c"/><path d="M321.72,546.16c5.61,4,18.63,8.84,36.46,13.64l14.09-18.15a264,264,0,0,1-35.69-9.1l-1.26-.43,1.26.43c3.54,1.14,14.73,4.43,35.49,7.65-5-9.83-14.05-24.37-21.89-36-22.71,5.71-29,17.47-29,17.47S310.18,538,321.72,546.16Z" style="fill:url(#linear-gradient)"/><path d="M434.78,515.18a1.49,1.49,0,0,0-.14-.19l.79,1.34.23.19C435.37,516.08,435.08,515.63,434.78,515.18Z" style="fill:none"/><path d="M472.45,510.26c.54.73,1,1.48,1.55,2.25C473.5,511.74,473,511,472.45,510.26Z" style="fill:none"/><path d="M577.47,544.77l-1,.06q-10,.61-19.52,1.08-10.69.52-20.78.89-10.65.38-20.62.59-10.49.22-20.27.28-8,0-15.48,0l-5-.05c-3.26,0-6.44-.09-9.57-.15-2.89-.06-5.71-.13-8.5-.21l-2.76-.09h-.44l.67,1.14-1.46,1.81.67,0q6.29.28,12.66.45l7.38.18q10.24.22,20.58.24t20.86-.13q10.24-.15,20.39-.45c6.76-.2,13.48-.43,20.12-.71,6.94-.29,13.82-.63,20.57-1l4.57-.25q8.19-.47,16.13-1l2.31-2.85-.76-1.28-.48,0Q587.4,544.16,577.47,544.77Z" style="fill:none"/><path d="M474.36,513.09h0l0,0Z" style="fill:none"/><path d="M492,509.05c.78,1.15,1.6,2.34,2.42,3.56l0,0c-.39-.62-.8-1.24-1.2-1.83S492.42,509.63,492,509.05Z" style="fill:#be202e"/><path d="M492,509.05c.78,1.15,1.6,2.34,2.42,3.56l0,0c-.39-.62-.8-1.24-1.2-1.83S492.42,509.63,492,509.05Z" style="fill:#be202e;opacity:0.349999994039536;isolation:isolate"/><path d="M474.34,513.07h0l0,0c-.12-.2-.24-.38-.37-.58-.49-.78-1-1.54-1.55-2.25l1.9,2.81Z" style="fill:#be202e"/><path d="M474.34,513.07h0l0,0c-.12-.2-.24-.38-.37-.58-.49-.78-1-1.54-1.55-2.25l1.9,2.81Z" style="fill:#be202e;opacity:0.349999994039536;isolation:isolate"/><path d="M433.13,549c-6.91-.48-13.72-1-20.39-1.7q-10.4-1-20.33-2.4l-1.17-.16c-6.5-.91-12.83-1.95-18.95-3.11L358.2,559.79l3.76,1c4.8,1.25,9.91,2.47,15.29,3.67,6.07,1.35,12.47,2.67,19.15,3.92,6.16,1.16,12.57,2.26,19.16,3.29q8.4,1.33,17.17,2.46l.65.08,19.46-24.12Q442.85,549.66,433.13,549Z" style="fill:url(#linear-gradient-2)"/><path d="M601.33,543.14q8.1-.6,16.48-1.31l.24,0,2.38-.2c3.77-.32,7.15-.64,14.85-1.36,0-4.53,3.17-9.58,7-14.74a22.55,22.55,0,0,0-11.14,13c-7.51-18.92-19.4-32.77-36.66-34.91a40.68,40.68,0,0,0-4.74-.31c6.45,1.61,10.56,5.34,14,14.33l0,0,0,0c-11.58-10.3-20-14.26-31.79-15.85-2.79-.37-5.76-.62-9-.78,16.66,6,25.83,17.64,29.54,32.52l5.78,9.81Z" style="fill:url(#linear-gradient-3)"/><path d="M576,548.74q-10.15.55-20.57,1-10,.41-20.12.71t-20.39.45q-10.41.15-20.86.13t-20.58-.24l-7.38-.18q-6.36-.19-12.66-.45l-.67,0-19.46,24.12,1.31.17c6.19.79,12.49,1.51,18.87,2.13s13,1.16,19.53,1.58q8.31.55,16.65.86l3.36.1q10.46.29,20,.1c7.19-.14,14-.47,20.31-.94q6.27-.47,12-1.1c3.25-.38,6.47-.83,9.68-1.29q11.31-1.66,22.19-4.11l19.53-24.22q-7.93.52-16.13,1C579.12,548.58,577.58,548.65,576,548.74Z" style="fill:url(#linear-gradient-4)"/><path d="M578.18,571.5a214.44,214.44,0,0,0,25.68-7.57l.87-.31c-4.61,6.89-6,20.43-6,20.38,7.66-12.68,16.08-23.48,26.53-29.23,2.69,3.73,4,9.91,4.55,17.48,3.17-9.58,2.6-15.45,2.17-17.64,3.19,6.05,10.39,10.61,18.27,14.93-8.2-7.81-13.23-14.82-14.46-20.92,28.78-2.42,60.13-6,93.19-10.28a8.39,8.39,0,0,0-7.4-2.92c-6,.81-45.23,6-98,10.16l-4.53.36-1.27.1c-5.54.42-11.21.83-17,1.22l-4,.26h-.08L577.2,571.73C577.53,571.64,577.86,571.58,578.18,571.5Z" style="fill:url(#linear-gradient-5)"/><path d="M454,547.16l2.76.09q4.16.12,8.5.21c3.13.06,6.31.12,9.57.15l5,.05q7.52.06,15.48,0,9.78-.05,20.27-.28,10-.21,20.62-.59,10.09-.36,20.78-.89,9.53-.47,19.52-1.08l1-.06q9.93-.6,20.34-1.37l.48,0-5.78-9.81c.06.23.13.43.17.67-7.1-11.64-23.7-23.9-39.86-29.37a107.71,107.71,0,0,0-24.72-5,176.41,176.41,0,0,0-21.88-.54c-6.86.22-14.14.75-21.92,1.6a40.76,40.76,0,0,1,7.7,8.16c.41.57.83,1.16,1.23,1.74s.81,1.21,1.2,1.83h0l0,0c-9.61-9.52-21.42-12.92-34.27-13.47a44.67,44.67,0,0,1,12.3,11.11c.54.73,1,1.48,1.55,2.25.13.19.25.38.37.58h0l0,0h0a51.59,51.59,0,0,0-10.38-7.7c-.76-.41-1.51-.81-2.29-1.16-1.17-.55-2.37-1-3.59-1.46-.78-.27-1.57-.53-2.37-.74a43.86,43.86,0,0,0-5.88-1.22l-1.9-.24-2.67-.13c-4-.15-7.41-.14-10.41,0-1.49.05-2.87.14-4.13.25-.5,0-1,.08-1.45.14-1.4.14-2.63.3-3.69.46a36.5,36.5,0,0,0-3.71.76h0a12.78,12.78,0,0,1,1.51.93c3.64,2.54,8.22,7.65,11.27,12.05l-5.31-9,5.31,9a1.49,1.49,0,0,0,.14.19l.88,1.34-.23-.19,18.16,30.82A2,2,0,0,0,454,547.16Z" style="fill:url(#linear-gradient-6)"/><path d="M372.07,540.2c5.72.89,12.16,1.77,19.38,2.6l1.14.13Q402,544,413,544.9c6.39.52,13.2,1,20.47,1.38q9.51.51,20.07.86l-18.16-30.82c-8.59-7.49-14.43-9.94-22-11.47-2.05-.38-4.19-.74-6.37-1.06-6.7-1-13.9-1.68-20.89-2a186.88,186.88,0,0,0-19.1-.07,87.87,87.87,0,0,0-9.87,1c-2.52.42-4.86.93-7.06,1.48C358,515.83,367,530.37,372.07,540.2Z" style="fill:url(#linear-gradient-7)"/><path d="M493.23,510.8c.41.6.81,1.21,1.2,1.83h0C494,512,493.64,511.4,493.23,510.8Z" style="fill:#be202e"/><path d="M493.23,510.8c.41.6.81,1.21,1.2,1.83h0C494,512,493.64,511.4,493.23,510.8Z" style="fill:#be202e;opacity:0.349999994039536;isolation:isolate"/><path d="M493.23,510.8c.41.6.81,1.21,1.2,1.83h0C494,512,493.64,511.4,493.23,510.8Z" style="fill:url(#linear-gradient-8)"/><path d="M474.36,513.09c-.12-.2-.24-.38-.37-.58.13.19.25.38.37.58Z" style="fill:#be202e"/><path d="M474.36,513.09c-.12-.2-.24-.38-.37-.58.13.19.25.38.37.58Z" style="fill:#be202e;opacity:0.349999994039536;isolation:isolate"/><path d="M474.36,513.09c-.12-.2-.24-.38-.37-.58.13.19.25.38.37.58Z" style="fill:url(#linear-gradient-9)"/><path d="M474.35,513.08Z" style="fill:#be202e"/><path d="M474.35,513.08Z" style="fill:#be202e;opacity:0.349999994039536;isolation:isolate"/><path d="M474.35,513.08Z" style="fill:url(#linear-gradient-10)"/><path d="M792.39,441.82a39.59,39.59,0,0,0,31.86-13.62c7.49-9,11.47-25.25,11.47-39.83a45,45,0,0,0-12.39-31.86,40.7,40.7,0,0,0-30.94-13.18,43,43,0,0,0-32.74,13.18,44.64,44.64,0,0,0-12.39,32c0,14.06,4.22,30.19,12.19,39.43A41.62,41.62,0,0,0,792.39,441.82Z" style="fill:none"/><rect x="76.83" y="-76.83" width="918.34" height="1072" transform="translate(995.17 -76.83) rotate(90)" style="fill:none"/><path d="M815.13,484.79c-5.77.68-11.51,1.59-17.24,2.47-12.74,2-25.45,4.54-38.23,6.25-4,.52-9.24,1.08-11.95-2.59-3.78-5.54,5.93-11.71,9.28-14.18,4-2.95,12.31-6.61,12.82-7.13a67.43,67.43,0,0,1,7.33.52,95.86,95.86,0,0,0,52.41-8.32,79.66,79.66,0,0,0,18-11.95A61.61,61.61,0,0,0,860.77,433a92.09,92.09,0,0,0,7.37-23.58,112.68,112.68,0,0,0,1.63-25.85,75.07,75.07,0,0,0-4.5-21.86,130.22,130.22,0,0,0-9.16-17.44l19.47-19.63V192H268.93q-33.21.68-54.64,20.47a67.42,67.42,0,0,0-22.14,51.77,81.36,81.36,0,0,0,11.35,43.81q11.35,18.24,39.83,31.54l22.74,10.63q30.39,14.26,37.91,26.32a48.39,48.39,0,0,1,7.53,26.13,39.83,39.83,0,0,1-13.58,31,51.77,51.77,0,0,1-35.84,12.15,92.75,92.75,0,0,1-28.55-5.22A95.3,95.3,0,0,1,207,427.41l-13.94,35a112.55,112.55,0,0,0,63.72,17.48q42.41,0,67.7-21.86a67.7,67.7,0,0,0,25.09-53.21q0-28.87-11.55-47.79t-40.22-32.18l-23.1-10.63a166.78,166.78,0,0,1-29.31-16.53A40.46,40.46,0,0,1,234.16,283a45.8,45.8,0,0,1-4-19.39,38,38,0,0,1,11.19-28.32,34.77,34.77,0,0,1,27.4-11.95H844.17v88.33l-11.71,11.95a28.32,28.32,0,0,0-5.5-2.87A96.14,96.14,0,0,0,794.15,314a93.39,93.39,0,0,0-33.29,4.38A77,77,0,0,0,734,336.21a80.93,80.93,0,0,0-15,21.7,87.14,87.14,0,0,0-6.85,26,85.11,85.11,0,0,0,1,26.68,75.39,75.39,0,0,0,8.64,22.9,78.86,78.86,0,0,0,14.34,16.29,99.57,99.57,0,0,0,10.31,8.72c-4,2.51-7.73,5.3-11.43,8-9.8,7.41-19.08,19.55-14.34,33.29s20.15,17.68,33.05,18.76a134.77,134.77,0,0,0,35.13-2.71c8.72-1.59,17.6-2.31,26.44-3.15,3.66-.36,7.25-1,11-1.08A21.11,21.11,0,0,1,843.33,518a13.32,13.32,0,0,1,1.13,2l0,.1c7.5,18.4-22.1,26.47-44.63,29.16-12.64,1.51-41,3.55-60.63,2.13-.68,13.23-6.45,24.89-15.74,32.55,15.74,0,38.51-.12,51.52-.91,11.1-.67,21.88-1,33.42-2.69,40-5.13,71.64-26.27,71.64-51C880,500.74,855.92,479.06,815.13,484.79ZM759.66,356.52a43,43,0,0,1,32.74-13.18,40.7,40.7,0,0,1,30.94,13.18,45,45,0,0,1,12.39,31.86c0,14.58-4,30.82-11.47,39.83a39.59,39.59,0,0,1-31.86,13.62A41.62,41.62,0,0,1,759.46,428c-8-9.24-12.19-25.37-12.19-39.43A44.64,44.64,0,0,1,759.66,356.52Z" style="fill:#00678c"/><path d="M197,692.42a12.25,12.25,0,0,0,5.31,5.35,15.61,15.61,0,0,0,7.39,1.85,12,12,0,0,0,3.6-.57,11,11,0,0,0,3.22-1.61,8.76,8.76,0,0,0,2.32-2.51,6.28,6.28,0,0,0,.9-3.36,5.41,5.41,0,0,0-1.94-4.55,14.48,14.48,0,0,0-4.78-2.37,58.18,58.18,0,0,0-6.25-1.47,26.56,26.56,0,0,1-6.26-1.9,13.43,13.43,0,0,1-4.78-3.55,9.63,9.63,0,0,1-1.94-6.44,11.24,11.24,0,0,1,1.33-5.59,12.17,12.17,0,0,1,3.45-3.93,15.08,15.08,0,0,1,4.79-2.32,19.62,19.62,0,0,1,5.4-.76,20.42,20.42,0,0,1,9.34,2,13.8,13.8,0,0,1,6.11,6.25l-5.12,3a12,12,0,0,0-4-4.59,11.41,11.41,0,0,0-6.3-1.56,11.66,11.66,0,0,0-3.17.47,11.12,11.12,0,0,0-3,1.33,7.68,7.68,0,0,0-2.23,2.18,5.3,5.3,0,0,0-.9,3,5,5,0,0,0,1.94,4.36,15,15,0,0,0,4.78,2.23,59,59,0,0,0,6.25,1.37,25.28,25.28,0,0,1,6.26,1.85,12.81,12.81,0,0,1,4.78,3.69q1.94,2.42,1.94,6.87a12.87,12.87,0,0,1-1.28,5.92,12.21,12.21,0,0,1-3.51,4.21,15.61,15.61,0,0,1-5.07,2.56,20.72,20.72,0,0,1-6,.85,24.33,24.33,0,0,1-10.38-2.18,15.75,15.75,0,0,1-7.25-6.73Z" style="fill:#6d6e71"/><path d="M238.24,632h5.69V703.6h-5.69Z" style="fill:#6d6e71"/><path d="M259.66,642.49a4.2,4.2,0,1,1,1.23,3A4.12,4.12,0,0,1,259.66,642.49Zm1.42,17.34h5.69V703.6h-5.69Z" style="fill:#6d6e71"/><path d="M282.87,672.15q0-1.23-.09-3t-.14-3.55c0-1.2-.08-2.32-.14-3.36s-.09-1.85-.09-2.42h5.68q.09,2.46.14,4.74a14.81,14.81,0,0,0,.24,2.94h.28a15.33,15.33,0,0,1,5.69-6.21,16.55,16.55,0,0,1,9.28-2.6,18.69,18.69,0,0,1,8.34,1.61,13.38,13.38,0,0,1,5.07,4.21,15.9,15.9,0,0,1,2.56,6,34.47,34.47,0,0,1,.71,7V703.6h-5.68V677.83a27.8,27.8,0,0,0-.47-5.16,13.76,13.76,0,0,0-1.66-4.5,8.71,8.71,0,0,0-3.32-3.17,11.39,11.39,0,0,0-5.54-1.18,16.18,16.18,0,0,0-5.92,1.09,12.8,12.8,0,0,0-4.84,3.32,16.1,16.1,0,0,0-3.22,5.59,23.9,23.9,0,0,0-1.18,7.91V703.6h-5.69Z" style="fill:#6d6e71"/><path d="M379.52,700.76q0,8.14-2.37,13.17a20.77,20.77,0,0,1-5.92,7.77,19.67,19.67,0,0,1-7.63,3.7,33.06,33.06,0,0,1-7.39.95,34.23,34.23,0,0,1-6.49-.61,31.09,31.09,0,0,1-6-1.8,24.89,24.89,0,0,1-5.16-2.89,20.43,20.43,0,0,1-4-3.89L339,713a18.12,18.12,0,0,0,7.58,6.26,23.86,23.86,0,0,0,9.66,2,20.71,20.71,0,0,0,7.34-1.14,14.53,14.53,0,0,0,4.93-3,14.32,14.32,0,0,0,3-4.08,21.19,21.19,0,0,0,1.61-4.45,23.37,23.37,0,0,0,.62-4.21c.06-1.33.09-2.4.09-3.23v-6.06h-.19a17.46,17.46,0,0,1-6.68,6.25,20.57,20.57,0,0,1-9.9,2.28,23.64,23.64,0,0,1-9.1-1.75,23.16,23.16,0,0,1-12.46-12,21.48,21.48,0,0,1,0-17.43,22.63,22.63,0,0,1,5-7.11,24.32,24.32,0,0,1,7.44-4.83,23.17,23.17,0,0,1,9.1-1.8A20.57,20.57,0,0,1,367,661a17.44,17.44,0,0,1,6.68,6.26h.19v-7.39h5.68ZM374,681.15a16.85,16.85,0,0,0-1.38-6.78,17.22,17.22,0,0,0-9.19-9.19,17.4,17.4,0,0,0-13.55,0,17.24,17.24,0,0,0-9.19,9.19,17.4,17.4,0,0,0,0,13.55,17.23,17.23,0,0,0,9.19,9.19,17.4,17.4,0,0,0,13.55,0,17.21,17.21,0,0,0,9.19-9.19A16.82,16.82,0,0,0,374,681.15Z" style="fill:#6d6e71"/><path d="M393.63,699.62a4.54,4.54,0,1,1,1.33,3.22A4.39,4.39,0,0,1,393.63,699.62Z" style="fill:#6d6e71"/><path d="M452.1,685.22q0,3.22,0,5.78c0,1.7.08,3.28.14,4.74s.14,2.81.24,4.07.24,2.53.43,3.79h-5.31a40.89,40.89,0,0,1-.57-7.11h-.19a16,16,0,0,1-6.11,6.26,19.17,19.17,0,0,1-9.24,2,22.37,22.37,0,0,1-5.59-.71,14.71,14.71,0,0,1-4.93-2.28,11.69,11.69,0,0,1-4.93-10,11.7,11.7,0,0,1,2.56-8,16,16,0,0,1,6.3-4.41,29.87,29.87,0,0,1,8-1.89q4.21-.43,7.44-.43H447v-2.66q0-5.68-3.51-8.15a15,15,0,0,0-8.81-2.46,20,20,0,0,0-13.36,4.93L418,664.85a20.19,20.19,0,0,1,7.77-4.59,27.81,27.81,0,0,1,8.91-1.56q8,0,12.7,3.74t4.74,12.08Zm-11.37-3.6a49.79,49.79,0,0,0-7,.47,24.26,24.26,0,0,0-6.06,1.61,11.29,11.29,0,0,0-4.31,3,7.07,7.07,0,0,0-1.61,4.74,7,7,0,0,0,.9,3.55,7.89,7.89,0,0,0,2.32,2.56,11,11,0,0,0,3.17,1.52,12.4,12.4,0,0,0,3.55.52,18.23,18.23,0,0,0,7.49-1.33,12.72,12.72,0,0,0,4.69-3.46,12.06,12.06,0,0,0,2.42-4.83,22.92,22.92,0,0,0,.66-5.45v-2.94Z" style="fill:#6d6e71"/><path d="M466,659.83h5.69v7.67h.19a14.7,14.7,0,0,1,3.32-3.93,20.06,20.06,0,0,1,4.31-2.75,21.72,21.72,0,0,1,4.88-1.61,25.35,25.35,0,0,1,5-.52,24.38,24.38,0,0,1,9.24,1.71,21.46,21.46,0,0,1,12.08,12.08,25.87,25.87,0,0,1,0,18.48A21.47,21.47,0,0,1,498.67,703a24.38,24.38,0,0,1-9.24,1.71,25.35,25.35,0,0,1-5-.52,21.72,21.72,0,0,1-4.88-1.61,19.91,19.91,0,0,1-4.31-2.75,14.7,14.7,0,0,1-3.32-3.93h-.19v29.28H466Zm5.12,21.89a17.31,17.31,0,0,0,1.42,7,17.91,17.91,0,0,0,3.89,5.69,18.62,18.62,0,0,0,5.78,3.83,18,18,0,0,0,7.2,1.42,17.62,17.62,0,0,0,7.2-1.42,16.71,16.71,0,0,0,5.5-3.83,16.35,16.35,0,0,0,3.46-5.69,21.09,21.09,0,0,0,0-13.93,16.29,16.29,0,0,0-3.46-5.68,16.72,16.72,0,0,0-5.5-3.84,17.62,17.62,0,0,0-7.2-1.42,18,18,0,0,0-7.2,1.42,18.63,18.63,0,0,0-5.78,3.84,17.85,17.85,0,0,0-3.89,5.68A17.31,17.31,0,0,0,471.14,681.72Z" style="fill:#6d6e71"/><path d="M559.17,685.22q0,3.22,0,5.78c0,1.7.08,3.28.14,4.74s.14,2.81.24,4.07.24,2.53.43,3.79h-5.31a40.89,40.89,0,0,1-.57-7.11H554a16,16,0,0,1-6.11,6.26,19.17,19.17,0,0,1-9.24,2A22.37,22.37,0,0,1,533,704a14.71,14.71,0,0,1-4.93-2.28,11.69,11.69,0,0,1-4.93-10,11.7,11.7,0,0,1,2.56-8,16,16,0,0,1,6.3-4.41,29.87,29.87,0,0,1,8-1.89q4.21-.43,7.44-.43h6.63v-2.66q0-5.68-3.51-8.15a15,15,0,0,0-8.81-2.46,20,20,0,0,0-13.36,4.93l-3.32-3.89a20.19,20.19,0,0,1,7.77-4.59,27.81,27.81,0,0,1,8.91-1.56q8,0,12.7,3.74t4.74,12.08Zm-11.37-3.6a49.79,49.79,0,0,0-7,.47,24.26,24.26,0,0,0-6.06,1.61,11.29,11.29,0,0,0-4.31,3,7.07,7.07,0,0,0-1.61,4.74,7,7,0,0,0,.9,3.55,7.89,7.89,0,0,0,2.32,2.56,11,11,0,0,0,3.17,1.52,12.4,12.4,0,0,0,3.55.52,18.23,18.23,0,0,0,7.49-1.33,12.72,12.72,0,0,0,4.69-3.46,12.06,12.06,0,0,0,2.42-4.83,22.92,22.92,0,0,0,.66-5.45v-2.94Z" style="fill:#6d6e71"/><path d="M611,697.16a20.45,20.45,0,0,1-7.3,5.73,21.05,21.05,0,0,1-8.81,1.85,24.71,24.71,0,0,1-9.28-1.71,21,21,0,0,1-7.3-4.78,22,22,0,0,1-4.74-7.29,25.87,25.87,0,0,1,0-18.48,22,22,0,0,1,4.74-7.3,21,21,0,0,1,7.3-4.78,24.71,24.71,0,0,1,9.28-1.71,20.28,20.28,0,0,1,9,2,23.58,23.58,0,0,1,7.34,5.59l-4.55,3.41a19.64,19.64,0,0,0-5.4-4.31,13.26,13.26,0,0,0-6.35-1.56,17.6,17.6,0,0,0-7.2,1.42,16.67,16.67,0,0,0-5.5,3.84,16.24,16.24,0,0,0-3.46,5.68,21.09,21.09,0,0,0,0,13.93,16.29,16.29,0,0,0,3.46,5.69,16.66,16.66,0,0,0,5.5,3.83,17.6,17.6,0,0,0,7.2,1.42,13.29,13.29,0,0,0,6.59-1.66,17.17,17.17,0,0,0,5.16-4.4Z" style="fill:#6d6e71"/><path d="M619.9,632h5.69V667.5h.19a15.33,15.33,0,0,1,5.69-6.21,16.55,16.55,0,0,1,9.28-2.6,18.69,18.69,0,0,1,8.34,1.61,13.38,13.38,0,0,1,5.07,4.21,15.9,15.9,0,0,1,2.56,6,34.47,34.47,0,0,1,.71,7V703.6h-5.68V677.83a27.8,27.8,0,0,0-.47-5.16,13.76,13.76,0,0,0-1.66-4.5,8.71,8.71,0,0,0-3.32-3.17,11.39,11.39,0,0,0-5.54-1.18,16.18,16.18,0,0,0-5.92,1.09,12.8,12.8,0,0,0-4.84,3.32,16.1,16.1,0,0,0-3.22,5.59,23.9,23.9,0,0,0-1.18,7.91V703.6H619.9Z" style="fill:#6d6e71"/><path d="M711.25,695.36a19.15,19.15,0,0,1-8.2,7.2,26.08,26.08,0,0,1-10.75,2.18,23.28,23.28,0,0,1-9.1-1.71,20.5,20.5,0,0,1-7-4.78,21,21,0,0,1-4.5-7.29,26.72,26.72,0,0,1-1.56-9.34,25,25,0,0,1,1.61-9.09,21.66,21.66,0,0,1,4.55-7.25,21.34,21.34,0,0,1,6.92-4.83,21.66,21.66,0,0,1,8.81-1.75,21.15,21.15,0,0,1,8.86,1.75,19.39,19.39,0,0,1,6.44,4.64,19.6,19.6,0,0,1,3.93,6.59,22,22,0,0,1,1.33,7.49v4H675.81a19.32,19.32,0,0,0,.71,4.59,16.2,16.2,0,0,0,2.61,5.45,16.47,16.47,0,0,0,5.07,4.55,15.77,15.77,0,0,0,8.2,1.9,18.31,18.31,0,0,0,8.43-2.08,15.19,15.19,0,0,0,6.25-5.69ZM706.89,678a12.94,12.94,0,0,0-1.18-5.49,14.78,14.78,0,0,0-3.22-4.5,15.36,15.36,0,0,0-4.83-3.08,15.54,15.54,0,0,0-5.92-1.14,14.46,14.46,0,0,0-7.72,1.9,16.86,16.86,0,0,0-4.88,4.36,17.29,17.29,0,0,0-2.56,4.78,12.61,12.61,0,0,0-.76,3.17Z" style="fill:#6d6e71"/><path d="M725.46,699.62a4.54,4.54,0,1,1,1.33,3.22A4.39,4.39,0,0,1,725.46,699.62Z" style="fill:#6d6e71"/><path d="M747.44,681.72a24.42,24.42,0,0,1,1.71-9.24,22,22,0,0,1,4.74-7.3,21,21,0,0,1,7.3-4.78,24.71,24.71,0,0,1,9.28-1.71,24.38,24.38,0,0,1,9.24,1.71,21.46,21.46,0,0,1,12.08,12.08,25.87,25.87,0,0,1,0,18.48A21.47,21.47,0,0,1,779.71,703a24.38,24.38,0,0,1-9.24,1.71,24.71,24.71,0,0,1-9.28-1.71,21,21,0,0,1-7.3-4.78,22,22,0,0,1-4.74-7.29A24.46,24.46,0,0,1,747.44,681.72Zm5.69,0a20.24,20.24,0,0,0,1.18,7,16.29,16.29,0,0,0,3.46,5.69,16.66,16.66,0,0,0,5.5,3.83,19,19,0,0,0,14.4,0,16.71,16.71,0,0,0,5.5-3.83,16.35,16.35,0,0,0,3.46-5.69,21.09,21.09,0,0,0,0-13.93,16.29,16.29,0,0,0-3.46-5.68,16.72,16.72,0,0,0-5.5-3.84,19,19,0,0,0-14.4,0,16.67,16.67,0,0,0-5.5,3.84,16.24,16.24,0,0,0-3.46,5.68A20.24,20.24,0,0,0,753.13,681.72Z" style="fill:#6d6e71"/><path d="M806.19,672.15q0-1.23-.09-3t-.14-3.55c0-1.2-.08-2.32-.14-3.36s-.09-1.85-.09-2.42h5.68q.09,2.46.14,4.74a14.81,14.81,0,0,0,.24,2.94,19.46,19.46,0,0,1,5.59-6.35,13.86,13.86,0,0,1,8.34-2.46,9.5,9.5,0,0,1,1.66.14c.53.09,1.09.21,1.66.33l-.66,5.59a7,7,0,0,0-2.18-.38,15.81,15.81,0,0,0-6.4,1.19,12,12,0,0,0-4.45,3.27,13.59,13.59,0,0,0-2.6,4.88,20.48,20.48,0,0,0-.85,6V703.6h-5.69Z" style="fill:#6d6e71"/><path d="M880,700.76q0,8.14-2.37,13.17a20.77,20.77,0,0,1-5.92,7.77,19.67,19.67,0,0,1-7.63,3.7,33.06,33.06,0,0,1-7.39.95,34.23,34.23,0,0,1-6.49-.61,31.09,31.09,0,0,1-6-1.8A24.89,24.89,0,0,1,839,721a20.43,20.43,0,0,1-4-3.89l4.45-4.17a18.12,18.12,0,0,0,7.58,6.26,23.86,23.86,0,0,0,9.66,2,20.71,20.71,0,0,0,7.34-1.14,14.53,14.53,0,0,0,4.93-3,14.32,14.32,0,0,0,3-4.08,21.19,21.19,0,0,0,1.61-4.45,23.37,23.37,0,0,0,.62-4.21c.06-1.33.09-2.4.09-3.23v-6.06h-.19a17.46,17.46,0,0,1-6.68,6.25,20.57,20.57,0,0,1-9.9,2.28,23.64,23.64,0,0,1-9.1-1.75,23.16,23.16,0,0,1-12.46-12,21.48,21.48,0,0,1,0-17.43,22.63,22.63,0,0,1,5-7.11,24.32,24.32,0,0,1,7.44-4.83,23.17,23.17,0,0,1,9.1-1.8,20.57,20.57,0,0,1,9.9,2.27,17.44,17.44,0,0,1,6.68,6.26h.19v-7.39H880Zm-5.49-19.62a16.85,16.85,0,0,0-1.38-6.78,17.22,17.22,0,0,0-9.19-9.19,17.4,17.4,0,0,0-13.55,0,17.24,17.24,0,0,0-9.19,9.19,17.4,17.4,0,0,0,0,13.55,17.23,17.23,0,0,0,9.19,9.19,17.4,17.4,0,0,0,13.55,0,17.21,17.21,0,0,0,9.19-9.19A16.82,16.82,0,0,0,874.51,681.15Z" style="fill:#6d6e71"/><path d="M920.16,195.74H908.93V226h-4V195.74H893.66V192h26.5Z" style="fill:#6d6e71"/><path d="M924.91,192h6l11.52,26.64h.1L954.14,192H960v34h-4V197.47h-.1L943.68,226h-2.45L929,197.47h-.09V226h-4Z" style="fill:#6d6e71"/></svg>