<svg id="Layer_1" data-name="Layer 1" xmlns="http://www.w3.org/2000/svg" xmlns:xlink="http://www.w3.org/1999/xlink" viewBox="0 0 1072 776"><defs><linearGradient id="linear-gradient" x1="-1680.73" y1="2303.85" x2="-1627.57" y2="2241.69" gradientTransform="matrix(-1, -0.01, -0.01, 1, -1293.91, -1775)" gradientUnits="userSpaceOnUse"><stop offset="0" stop-color="#f69923"/><stop offset="0.31" stop-color="#f79a23"/><stop offset="0.84" stop-color="#e97826"/></linearGradient><linearGradient id="linear-gradient-2" x1="-2074.12" y1="2310.7" x2="-1694.9" y2="2310.7" gradientTransform="matrix(-1, -0.01, -0.01, 1, -1293.91, -1775)" gradientUnits="userSpaceOnUse"><stop offset="0.32" stop-color="#9e2064"/><stop offset="0.63" stop-color="#c92037"/><stop offset="0.75" stop-color="#cd2335"/><stop offset="1" stop-color="#e97826"/></linearGradient><linearGradient id="linear-gradient-3" x1="-2028.35" y1="2272.67" x2="-1802.36" y2="2272.67" gradientTransform="matrix(-1, -0.01, -0.01, 1, -1293.91, -1775)" gradientUnits="userSpaceOnUse"><stop offset="0" stop-color="#282662"/><stop offset="0.1" stop-color="#662e8d"/><stop offset="0.79" stop-color="#9f2064"/><stop offset="0.95" stop-color="#cd2032"/></linearGradient><linearGradient id="linear-gradient-4" x1="-2052.82" y1="2314.23" x2="-1673.6" y2="2314.23" xlink:href="#linear-gradient-2"/><linearGradient id="linear-gradient-5" x1="-2025.17" y1="2309.12" x2="-1825.87" y2="2309.12" xlink:href="#linear-gradient-3"/><linearGradient id="linear-gradient-6" x1="-2052.82" y1="2275" x2="-1673.6" y2="2275" xlink:href="#linear-gradient-2"/><linearGradient id="linear-gradient-7" x1="-2076.35" y1="2276.94" x2="-1697.12" y2="2276.94" xlink:href="#linear-gradient-2"/><linearGradient id="linear-gradient-8" x1="-2052.82" y1="2263.32" x2="-1673.6" y2="2263.32" xlink:href="#linear-gradient-2"/><linearGradient id="linear-gradient-9" x1="-2052.82" y1="2264.66" x2="-1673.6" y2="2264.66" xlink:href="#linear-gradient-2"/><linearGradient id="linear-gradient-10" x1="-1839.78" y1="2264.93" x2="-1796.49" y2="2264.93" xlink:href="#linear-gradient-2"/></defs><title>Sling Logo</title><path d="M415.41,427.88V255l-36.64-.32V443.7q0,33.89,24.93,33.89c13.7,0,18.88-5.26,24.53-15.93C416.68,458.15,415.41,446.84,415.41,427.88Z" style="fill:#00678c"/><polygon points="452.96 350.86 467.98 350.86 467.98 475.36 503.94 475.36 503.94 321.39 452.96 321.39 452.96 350.86" style="fill:#00678c"/><path d="M486.3,261.73a19.91,19.91,0,0,0-14.58,6.09,21,21,0,0,0,0,29.47,20.43,20.43,0,0,0,28.89.26l.26-.26a21,21,0,0,0,0-29.47A19.91,19.91,0,0,0,486.3,261.73Z" style="fill:#00678c"/><path d="M623.14,317.93q-28.59,0-43.25,17V320.75H547.27V473.09h35.84V363a39,39,0,0,1,14.14-11,38.47,38.47,0,0,1,16.89-4.42q17.08,0,24.65,9T646.31,385v88h35.84V379.66q0-29.15-15.93-45.44T623.14,317.93Z" style="fill:#00678c"/><path d="M346.85,577l-2.77-.73-.18,0-1.25-.34c-21.81-5.87-37-11.75-45.1-17.46a33.85,33.85,0,0,1-7-6.59h-67V503.43a170.49,170.49,0,0,1-31.46-12.54V584H377.77c-4.64-.92-9.31-1.89-14-2.92C357.58,579.68,352,578.35,346.85,577Z" style="fill:#00678c"/><path d="M321.72,546.16c5.61,4,18.63,8.84,36.46,13.64l14.09-18.15a264,264,0,0,1-35.69-9.1l-1.26-.43,1.26.43c3.54,1.14,14.73,4.43,35.49,7.65-5-9.83-14.05-24.37-21.89-36-22.71,5.71-29,17.47-29,17.47S310.18,538,321.72,546.16Z" style="fill:url(#linear-gradient)"/><path d="M434.78,515.18a1.49,1.49,0,0,0-.14-.19l.79,1.34.23.19C435.37,516.08,435.08,515.63,434.78,515.18Z" style="fill:none"/><path d="M472.45,510.26c.54.73,1,1.48,1.55,2.25C473.5,511.74,473,511,472.45,510.26Z" style="fill:none"/><path d="M577.47,544.77l-1,.06q-10,.61-19.52,1.08-10.69.52-20.78.89-10.65.38-20.62.59-10.49.22-20.27.28-8,0-15.48,0l-5-.05c-3.26,0-6.44-.09-9.57-.15-2.89-.06-5.71-.13-8.5-.21l-2.76-.09h-.44l.67,1.14-1.46,1.81.67,0q6.29.28,12.66.45l7.38.18q10.24.22,20.58.24t20.86-.13q10.24-.15,20.39-.45c6.76-.2,13.48-.43,20.12-.71,6.94-.29,13.82-.63,20.57-1l4.57-.25q8.19-.47,16.13-1l2.31-2.85-.76-1.28-.48,0Q587.4,544.16,577.47,544.77Z" style="fill:none"/><path d="M474.36,513.09h0l0,0Z" style="fill:none"/><path d="M492,509.05c.78,1.15,1.6,2.34,2.42,3.56l0,0c-.39-.62-.8-1.24-1.2-1.83S492.42,509.63,492,509.05Z" style="fill:#be202e"/><path d="M492,509.05c.78,1.15,1.6,2.34,2.42,3.56l0,0c-.39-.62-.8-1.24-1.2-1.83S492.42,509.63,492,509.05Z" style="fill:#be202e;opacity:0.349999994039536;isolation:isolate"/><path d="M474.34,513.07h0l0,0c-.12-.2-.24-.38-.37-.58-.49-.78-1-1.54-1.55-2.25l1.9,2.81Z" style="fill:#be202e"/><path d="M474.34,513.07h0l0,0c-.12-.2-.24-.38-.37-.58-.49-.78-1-1.54-1.55-2.25l1.9,2.81Z" style="fill:#be202e;opacity:0.349999994039536;isolation:isolate"/><path d="M433.13,549c-6.91-.48-13.72-1-20.39-1.7q-10.4-1-20.33-2.4l-1.17-.16c-6.5-.91-12.83-1.95-18.95-3.11L358.2,559.79l3.76,1c4.8,1.25,9.91,2.47,15.29,3.67,6.07,1.35,12.47,2.67,19.15,3.92,6.16,1.16,12.57,2.26,19.16,3.29q8.4,1.33,17.17,2.46l.65.08,19.46-24.12Q442.85,549.66,433.13,549Z" style="fill:url(#linear-gradient-2)"/><path d="M601.33,543.14q8.1-.6,16.48-1.31l.24,0,2.38-.2c3.77-.32,7.15-.64,14.85-1.36,0-4.53,3.17-9.58,7-14.74a22.55,22.55,0,0,0-11.14,13c-7.51-18.92-19.4-32.77-36.66-34.91a40.68,40.68,0,0,0-4.74-.31c6.45,1.61,10.56,5.34,14,14.33l0,0,0,0c-11.58-10.3-20-14.26-31.79-15.85-2.79-.37-5.76-.62-9-.78,16.66,6,25.83,17.64,29.54,32.52l5.78,9.81Z" style="fill:url(#linear-gradient-3)"/><path d="M576,548.74q-10.15.55-20.57,1-10,.41-20.12.71t-20.39.45q-10.41.15-20.86.13t-20.58-.24l-7.38-.18q-6.36-.19-12.66-.45l-.67,0-19.46,24.12,1.31.17c6.19.79,12.49,1.51,18.87,2.13s13,1.16,19.53,1.58q8.31.55,16.65.86l3.36.1q10.46.29,20,.1c7.19-.14,14-.47,20.31-.94q6.27-.47,12-1.1c3.25-.38,6.47-.83,9.68-1.29q11.31-1.66,22.19-4.11l19.53-24.22q-7.93.52-16.13,1C579.12,548.58,577.58,548.65,576,548.74Z" style="fill:url(#linear-gradient-4)"/><path d="M578.18,571.5a214.44,214.44,0,0,0,25.68-7.57l.87-.31c-4.61,6.89-6,20.43-6,20.38,7.66-12.68,16.08-23.48,26.53-29.23,2.69,3.73,4,9.91,4.55,17.48,3.17-9.58,2.6-15.45,2.17-17.64,3.19,6.05,10.39,10.61,18.27,14.93-8.2-7.81-13.23-14.82-14.46-20.92,28.78-2.42,60.13-6,93.19-10.28a8.39,8.39,0,0,0-7.4-2.92c-6,.81-45.23,6-98,10.16l-4.53.36-1.27.1c-5.54.42-11.21.83-17,1.22l-4,.26h-.08L577.2,571.73C577.53,571.64,577.86,571.58,578.18,571.5Z" style="fill:url(#linear-gradient-5)"/><path d="M454,547.16l2.76.09q4.16.12,8.5.21c3.13.06,6.31.12,9.57.15l5,.05q7.52.06,15.48,0,9.78-.05,20.27-.28,10-.21,20.62-.59,10.09-.36,20.78-.89,9.53-.47,19.52-1.08l1-.06q9.93-.6,20.34-1.37l.48,0-5.78-9.81c.06.23.13.43.17.67-7.1-11.64-23.7-23.9-39.86-29.37a107.71,107.71,0,0,0-24.72-5,176.41,176.41,0,0,0-21.88-.54c-6.86.22-14.14.75-21.92,1.6a40.76,40.76,0,0,1,7.7,8.16c.41.57.83,1.16,1.23,1.74s.81,1.21,1.2,1.83h0l0,0c-9.61-9.52-21.42-12.92-34.27-13.47a44.67,44.67,0,0,1,12.3,11.11c.54.73,1,1.48,1.55,2.25.13.19.25.38.37.58h0l0,0h0a51.59,51.59,0,0,0-10.38-7.7c-.76-.41-1.51-.81-2.29-1.16-1.17-.55-2.37-1-3.59-1.46-.78-.27-1.57-.53-2.37-.74a43.86,43.86,0,0,0-5.88-1.22l-1.9-.24-2.67-.13c-4-.15-7.41-.14-10.41,0-1.49.05-2.87.14-4.13.25-.5,0-1,.08-1.45.14-1.4.14-2.63.3-3.69.46a36.5,36.5,0,0,0-3.71.76h0a12.78,12.78,0,0,1,1.51.93c3.64,2.54,8.22,7.65,11.27,12.05l-5.31-9,5.31,9a1.49,1.49,0,0,0,.14.19l.88,1.34-.23-.19,18.16,30.82A2,2,0,0,0,454,547.16Z" style="fill:url(#linear-gradient-6)"/><path d="M372.07,540.2c5.72.89,12.16,1.77,19.38,2.6l1.14.13Q402,544,413,544.9c6.39.52,13.2,1,20.47,1.38q9.51.51,20.07.86l-18.16-30.82c-8.59-7.49-14.43-9.94-22-11.47-2.05-.38-4.19-.74-6.37-1.06-6.7-1-13.9-1.68-20.89-2a186.88,186.88,0,0,0-19.1-.07,87.87,87.87,0,0,0-9.87,1c-2.52.42-4.86.93-7.06,1.48C358,515.83,367,530.37,372.07,540.2Z" style="fill:url(#linear-gradient-7)"/><path d="M493.23,510.8c.41.6.81,1.21,1.2,1.83h0C494,512,493.64,511.4,493.23,510.8Z" style="fill:#be202e"/><path d="M493.23,510.8c.41.6.81,1.21,1.2,1.83h0C494,512,493.64,511.4,493.23,510.8Z" style="fill:#be202e;opacity:0.349999994039536;isolation:isolate"/><path d="M493.23,510.8c.41.6.81,1.21,1.2,1.83h0C494,512,493.64,511.4,493.23,510.8Z" style="fill:url(#linear-gradient-8)"/><path d="M474.36,513.09c-.12-.2-.24-.38-.37-.58.13.19.25.38.37.58Z" style="fill:#be202e"/><path d="M474.36,513.09c-.12-.2-.24-.38-.37-.58.13.19.25.38.37.58Z" style="fill:#be202e;opacity:0.349999994039536;isolation:isolate"/><path d="M474.36,513.09c-.12-.2-.24-.38-.37-.58.13.19.25.38.37.58Z" style="fill:url(#linear-gradient-9)"/><path d="M474.35,513.08Z" style="fill:#be202e"/><path d="M474.35,513.08Z" style="fill:#be202e;opacity:0.349999994039536;isolation:isolate"/><path d="M474.35,513.08Z" style="fill:url(#linear-gradient-10)"/><path d="M792.39,441.82a39.59,39.59,0,0,0,31.86-13.62c7.49-9,11.47-25.25,11.47-39.83a45,45,0,0,0-12.39-31.86,40.7,40.7,0,0,0-30.94-13.18,43,43,0,0,0-32.74,13.18,44.64,44.64,0,0,0-12.39,32c0,14.06,4.22,30.19,12.19,39.43A41.62,41.62,0,0,0,792.39,441.82Z" style="fill:none"/><rect x="148" y="-148" width="776" height="1072" transform="translate(924 -148) rotate(90)" style="fill:none"/><rect x="148" y="-148" width="776" height="1072" transform="translate(924 -148) rotate(90)" style="fill:none"/><path d="M815.13,484.79c-5.77.68-11.51,1.59-17.24,2.47-12.74,2-25.45,4.54-38.23,6.25-4,.52-9.24,1.08-11.95-2.59-3.78-5.54,5.93-11.71,9.28-14.18,4-2.95,12.31-6.61,12.82-7.13a67.43,67.43,0,0,1,7.33.52,95.86,95.86,0,0,0,52.41-8.32,79.66,79.66,0,0,0,18-11.95A61.61,61.61,0,0,0,860.77,433a92.09,92.09,0,0,0,7.37-23.58,112.68,112.68,0,0,0,1.63-25.85,75.07,75.07,0,0,0-4.5-21.86,130.22,130.22,0,0,0-9.16-17.44l19.47-19.63V192H268.93q-33.21.68-54.64,20.47a67.42,67.42,0,0,0-22.14,51.77,81.36,81.36,0,0,0,11.35,43.81q11.35,18.24,39.83,31.54l22.74,10.63q30.39,14.26,37.91,26.32a48.39,48.39,0,0,1,7.53,26.13,39.83,39.83,0,0,1-13.58,31,51.77,51.77,0,0,1-35.84,12.15,92.75,92.75,0,0,1-28.55-5.22A95.3,95.3,0,0,1,207,427.41l-13.94,35a112.55,112.55,0,0,0,63.72,17.48q42.41,0,67.7-21.86a67.7,67.7,0,0,0,25.09-53.21q0-28.87-11.55-47.79t-40.22-32.18l-23.1-10.63a166.78,166.78,0,0,1-29.31-16.53A40.46,40.46,0,0,1,234.16,283a45.8,45.8,0,0,1-4-19.39,38,38,0,0,1,11.19-28.32,34.77,34.77,0,0,1,27.4-11.95H844.17v88.33l-11.71,11.95a28.32,28.32,0,0,0-5.5-2.87A96.14,96.14,0,0,0,794.15,314a93.39,93.39,0,0,0-33.29,4.38A77,77,0,0,0,734,336.21a80.93,80.93,0,0,0-15,21.7,87.14,87.14,0,0,0-6.85,26,85.11,85.11,0,0,0,1,26.68,75.39,75.39,0,0,0,8.64,22.9,78.86,78.86,0,0,0,14.34,16.29,99.57,99.57,0,0,0,10.31,8.72c-4,2.51-7.73,5.3-11.43,8-9.8,7.41-19.08,19.55-14.34,33.29s20.15,17.68,33.05,18.76a134.77,134.77,0,0,0,35.13-2.71c8.72-1.59,17.6-2.31,26.44-3.15,3.66-.36,7.25-1,11-1.08A21.11,21.11,0,0,1,843.33,518a13.32,13.32,0,0,1,1.13,2l0,.1c7.5,18.4-22.1,26.47-44.63,29.16-12.64,1.51-41,3.55-60.63,2.13-.68,13.23-6.45,24.89-15.74,32.55,15.74,0,38.51-.12,51.52-.91,11.1-.67,21.88-1,33.42-2.69,40-5.13,71.64-26.27,71.64-51C880,500.74,855.92,479.06,815.13,484.79ZM759.66,356.52a43,43,0,0,1,32.74-13.18,40.7,40.7,0,0,1,30.94,13.18,45,45,0,0,1,12.39,31.86c0,14.58-4,30.82-11.47,39.83a39.59,39.59,0,0,1-31.86,13.62A41.62,41.62,0,0,1,759.46,428c-8-9.24-12.19-25.37-12.19-39.43A44.64,44.64,0,0,1,759.66,356.52Z" style="fill:#00678c"/><path d="M918.93,195.74H907.7V226h-4V195.74H892.43V192h26.5Z" style="fill:#6d6e71"/><path d="M923.68,192h6l11.52,26.64h.1L952.91,192h5.86v34h-4V197.47h-.1L942.45,226H940l-12.19-28.51h-.09V226h-4Z" style="fill:#6d6e71"/></svg>