<?xml version="1.0" encoding="UTF-8" standalone="no"?>
<!--
  Licensed to the Apache Software Foundation (ASF) under one
  or more contributor license agreements.  See the NOTICE file
  distributed with this work for additional information
  regarding copyright ownership.  The ASF licenses this file
  to you under the Apache License, Version 2.0 (the
  "License"); you may not use this file except in compliance
  with the License.  You may obtain a copy of the License at

   http://www.apache.org/licenses/LICENSE-2.0

  Unless required by applicable law or agreed to in writing,
  software distributed under the License is distributed on an
  "AS IS" BASIS, WITHOUT WARRANTIES OR CONDITIONS OF ANY
  KIND, either express or implied.  See the License for the
  specific language governing permissions and limitations
  under the License.
-->

<svg
   id="Sling_Logo"
   data-name="Sling Logo"
   viewBox="0 0 768 392"
   version="1.1"
   sodipodi:docname="sling-oakleaf-logo-2025.svg"
   inkscape:version="1.4.2 (ebf0e940, 2025-05-08)"
   xmlns:inkscape="http://www.inkscape.org/namespaces/inkscape"
   xmlns:sodipodi="http://sodipodi.sourceforge.net/DTD/sodipodi-0.dtd"
   xmlns:xlink="http://www.w3.org/1999/xlink"
   xmlns="http://www.w3.org/2000/svg"
   xmlns:svg="http://www.w3.org/2000/svg"
   xmlns:rdf="http://www.w3.org/1999/02/22-rdf-syntax-ns#"
   xmlns:cc="http://creativecommons.org/ns#"
   xmlns:dc="http://purl.org/dc/elements/1.1/">
  <sodipodi:namedview
     id="namedview42"
     pagecolor="#ffffff"
     bordercolor="#000000"
     borderopacity="0.25"
     inkscape:showpageshadow="2"
     inkscape:pageopacity="0.0"
     inkscape:pagecheckerboard="0"
     inkscape:deskcolor="#d1d1d1"
     inkscape:zoom="6.6031715"
     inkscape:cx="365.88479"
     inkscape:cy="185.21403"
     inkscape:window-width="1712"
     inkscape:window-height="1041"
     inkscape:window-x="0"
     inkscape:window-y="66"
     inkscape:window-maximized="0"
     inkscape:current-layer="Sling_Logo" />
  <defs
     id="defs11">
    <linearGradient
       id="linear-gradient"
       x1="-8576.57"
       y1="2068.26"
       x2="-8523.42"
       y2="2006.11"
       gradientTransform="matrix(-1, -0.01, -0.01, 1, -8384.13, -1821.1)"
       gradientUnits="userSpaceOnUse">
      <stop
         offset="0"
         stop-color="#f69923"
         id="stop1" />
      <stop
         offset="0.31"
         stop-color="#f79a23"
         id="stop2" />
      <stop
         offset="0.84"
         stop-color="#e97826"
         id="stop3" />
    </linearGradient>
    <linearGradient
       id="linear-gradient-2"
       x1="-8969.97"
       y1="2075.12"
       x2="-8590.74"
       y2="2075.12"
       gradientTransform="matrix(-1, -0.01, -0.01, 1, -8384.13, -1821.1)"
       gradientUnits="userSpaceOnUse">
      <stop
         offset="0.32"
         stop-color="#9e2064"
         id="stop4" />
      <stop
         offset="0.63"
         stop-color="#c92037"
         id="stop5" />
      <stop
         offset="0.75"
         stop-color="#cd2335"
         id="stop6" />
      <stop
         offset="1"
         stop-color="#e97826"
         id="stop7" />
    </linearGradient>
    <linearGradient
       id="linear-gradient-3"
       x1="-8924.2"
       y1="2037.09"
       x2="-8698.21"
       y2="2037.09"
       gradientTransform="matrix(-1, -0.01, -0.01, 1, -8384.13, -1821.1)"
       gradientUnits="userSpaceOnUse">
      <stop
         offset="0"
         stop-color="#282662"
         id="stop8" />
      <stop
         offset="0.1"
         stop-color="#662e8d"
         id="stop9" />
      <stop
         offset="0.79"
         stop-color="#9f2064"
         id="stop10" />
      <stop
         offset="0.95"
         stop-color="#cd2032"
         id="stop11" />
    </linearGradient>
    <linearGradient
       id="linear-gradient-4"
       x1="-8948.67"
       y1="2078.65"
       x2="-8569.44"
       y2="2078.65"
       xlink:href="#linear-gradient-2" />
    <linearGradient
       id="linear-gradient-5"
       x1="-8921.02"
       y1="2073.54"
       x2="-8721.72"
       y2="2073.54"
       xlink:href="#linear-gradient-3" />
    <linearGradient
       id="linear-gradient-6"
       x1="-8948.67"
       y1="2039.41"
       x2="-8569.45"
       y2="2039.41"
       xlink:href="#linear-gradient-2" />
    <linearGradient
       id="linear-gradient-7"
       x1="-8972.2"
       y1="2041.35"
       x2="-8592.97"
       y2="2041.35"
       xlink:href="#linear-gradient-2" />
    <linearGradient
       id="linear-gradient-8"
       x1="-8948.67"
       y1="2027.74"
       x2="-8569.45"
       y2="2027.74"
       xlink:href="#linear-gradient-2"
       gradientTransform="matrix(0.15,0,0,0.15,324.275,157.41408)" />
    <linearGradient
       id="linear-gradient-9"
       x1="-8948.67"
       y1="2029.08"
       x2="-8569.45"
       y2="2029.08"
       xlink:href="#linear-gradient-2"
       gradientTransform="matrix(0.15,0,0,0.15,324.275,157.41408)" />
    <linearGradient
       id="linear-gradient-10"
       x1="-8735.63"
       y1="2029.35"
       x2="-8692.34"
       y2="2029.35"
       xlink:href="#linear-gradient-2"
       gradientTransform="matrix(0.15,0,0,0.15,324.275,157.41408)" />
    <clipPath
       clipPathUnits="userSpaceOnUse"
       id="clipPath43">
      <rect
         style="fill:#929292;fill-opacity:1"
         id="rect44"
         width="17.264431"
         height="14.538468"
         x="316.66602"
         y="209.14192" />
    </clipPath>
  </defs>
  <title
     id="title11">Logo - Close Crop</title>
  <g
     id="g7"
     transform="matrix(0.075,0,0,0.075,290.646,147.69304)"
     sodipodi:insensitive="true"
     inkscape:label="oakleaf"
     style="display:inline">
    <path
       class="cls-3"
       d="M 276.70929,398.15158 C 302.23724,335.02733 330.72037,272.0269 361.28223,216.18798 315.661,182.30276 271.85458,109.23451 253.85632,76.861096 247.39206,84.205064 243.19551,92.663335 241.29273,99.544641 224.33709,160.7661 284.69512,234.69452 236.07962,207.68409 195.57375,185.17649 104.36388,135.88653 69.572883,184.87673 108.53762,234.94214 210.45066,360.90391 276.70929,398.15158 Z"
       id="path1"
       style="fill:#dd552c" />
    <path
       class="cls-2"
       d="m 361.28223,216.18798 c 29.61372,-54.10557 61.17258,-101.49274 93.89136,-135.632093 0,0 -32.63406,47.237293 -79.24578,141.666263 28.22899,7.77405 108.62492,23.72617 220.60904,-5.20008 2.75317,-20.35067 -10.92799,-42.73447 -79.10569,-50.22831 -44.51018,-4.88729 53.4246,-106.28228 -17.52257,-154.236376 -2.29051,-1.5509 -4.54192,-2.9193413 -6.74771,-4.1444221 C 490.78239,7.5593151 488.27033,6.7773486 485.58883,6.0800952 402.72971,-15.541278 391.24458,124.95855 358.18043,94.755096 304.74931,45.947354 271.02374,57.351032 253.85632,76.861096 271.85458,109.23451 315.661,182.30276 361.28223,216.18798 Z"
       id="path2"
       style="fill:#f79a23" />
    <path
       class="cls-4"
       d="M 210.0662,580.02395 C 228.77149,523.98954 251.27257,461.03472 276.70929,398.15158 210.45066,360.90391 108.53762,234.94214 69.572883,184.87673 62.61664,194.66435 57.862935,208.31618 56.279453,226.98563 47.782084,327.26632 151.23625,401.50752 130.61188,415.06812 103.33103,433.00774 49.03323,371.97525 27.633414,410.75427 58.651418,450.60198 121.83431,522.60155 210.0662,580.02395 Z"
       id="path3"
       style="fill:#d22128" />
    <path
       class="cls-3"
       d="m 496.71556,363.75157 c -52.38198,-18.68248 54.73766,-68.78699 89.52214,-121.94116 4.45069,-6.79659 9.05126,-15.58068 10.29915,-24.78834 -111.98412,28.92625 -192.38005,12.97413 -220.60904,5.20008 -24.13019,48.89246 -51.99426,110.5049 -81.05409,184.79172 30.26536,12.94154 153.84213,60.74576 328.39009,60.99338 29.34655,-76.43722 -76.83473,-86.53111 -126.54825,-104.25568 z"
       id="path4"
       style="fill:#dd552c" />
    <path
       class="cls-4"
       d="m 230.3061,590.11132 c 30.78015,9.59212 132.76813,38.24468 241.08353,33.93083 14.55109,-39.39808 -39.85097,-43.24275 -44.28212,-74.84071 -3.43087,-24.44949 143.16829,20.54617 190.33717,-68.3569 2.38499,-4.49631 4.24542,-8.73848 5.81913,-12.83729 -174.54796,-0.24762 -298.12473,-48.05184 -328.39009,-60.99338 -21.23691,54.28802 -43.08309,115.21624 -64.56762,183.09745 z"
       id="path5"
       style="fill:#d22128" />
    <path
       class="cls-1"
       d="m 230.3061,590.11132 c -13.83104,43.69238 -27.47635,90.36926 -40.72091,139.69832 -4.69831,17.48998 -9.34124,35.30578 -13.919,53.51257 102.80578,33.93735 197.4726,0.0782 200.68192,-41.88734 0.0261,-0.33233 -0.0358,-0.57996 -0.0163,-0.89926 2.44691,-44.44828 -64.17338,-19.80982 -62.59641,-46.53352 1.58348,-26.9192 116.30774,-0.1564 151.78621,-57.87204 2.72059,-4.42463 4.49305,-8.35401 5.86801,-12.0879 C 363.07423,628.356 261.08625,599.70344 230.3061,590.11132 Z"
       id="path6"
       style="fill:#7c297d" />
    <path
       class="cls-1"
       d="m 27.633414,410.75427 c -1.49877,2.71734 -2.85092,5.85824 -4.004321,9.61167 -19.9238542,64.75335 120.960447,151.7406 101.792487,170.70329 -17.2782,17.08597 -39.795576,-21.96023 -67.561903,-5.83217 -3.043153,1.77246 -6.131921,4.00758 -9.302143,7.25926 -31.402472,32.1714 -0.491988,124.85398 88.603316,174.3264 -20.79053,69.81006 -41.489835,147.8047 -61.752542,229.37032 7.350485,-2.57397 16.147608,-5.15446 18.337114,-12.0879 3.287518,-13.51499 23.605618,-95.7518 56.594828,-207.31887 0,0 6.02114,-22.85297 17.04361,-60.50465 10.19163,-34.81706 24.6743,-82.30198 42.68234,-136.25767 C 121.83431,522.60155 58.651418,450.60198 27.633414,410.75427 Z"
       id="path7"
       style="fill:#7c297d" />
  </g>
  <path
     d="m 422.15056,202.88744 c -0.90878,0.1071 -1.81283,0.25042 -2.7153,0.38902 -2.00655,0.315 -4.00838,0.71505 -6.02123,0.98438 -0.63,0.0819 -1.4553,0.1701 -1.88212,-0.40793 -0.59535,-0.87255 0.93397,-1.84432 1.4616,-2.23335 0.63,-0.46462 1.93882,-1.04107 2.01915,-1.12297 a 10.620225,10.620225 0 0 1 1.15447,0.0819 15.09795,15.09795 0 0 0 8.25458,-1.3104 12.54645,12.54645 0 0 0 2.835,-1.88213 9.703575,9.703575 0 0 0 2.08215,-2.65545 14.504175,14.504175 0 0 0 1.16077,-3.71385 17.7471,17.7471 0 0 0 0.25673,-4.07137 11.823525,11.823525 0 0 0 -0.70875,-3.44295 20.50965,20.50965 0 0 0 -1.4427,-2.7468 l 3.06652,-3.09173 v -20.8908 h -95.54737 q -5.23058,0.1071 -8.6058,3.22403 a 10.61865,10.61865 0 0 0 -3.48705,8.15377 12.8142,12.8142 0 0 0 1.78762,6.90008 q 1.78763,2.8728 6.27323,4.96755 l 3.58155,1.67423 q 4.78642,2.24595 5.97082,4.1454 a 7.621425,7.621425 0 0 1 1.18598,4.11547 6.273225,6.273225 0 0 1 -2.13885,4.8825 8.153775,8.153775 0 0 1 -5.6448,1.91362 14.608125,14.608125 0 0 1 -4.49663,-0.82214 15.00975,15.00975 0 0 1 -4.18005,-2.07743 l -2.205,5.5062 a 17.726625,17.726625 0 0 0 10.0359,2.7531 q 6.67958,0 10.66275,-3.44295 a 10.66275,10.66275 0 0 0 3.95168,-8.38057 q 0,-4.54703 -1.81913,-7.52693 -1.81912,-2.9799 -6.33465,-5.06835 l -3.63825,-1.67422 a 26.26785,26.26785 0 0 1 -4.61632,-2.60348 6.37245,6.37245 0 0 1 -1.75928,-2.30737 7.2135,7.2135 0 0 1 -0.63,-3.05393 5.985,5.985 0 0 1 1.76558,-4.4541 5.476275,5.476275 0 0 1 4.3155,-1.88212 h 90.6255 v 13.91197 l -1.84433,1.88213 a 4.4604,4.4604 0 0 0 -0.86625,-0.45203 15.14205,15.14205 0 0 0 -5.16757,-1.06942 14.708925,14.708925 0 0 0 -5.24318,0.68985 12.1275,12.1275 0 0 0 -4.23045,2.80822 12.746475,12.746475 0 0 0 -2.3625,3.41775 13.72455,13.72455 0 0 0 -1.07887,4.095 13.404825,13.404825 0 0 0 0.1575,4.2021 11.873925,11.873925 0 0 0 1.3608,3.60675 12.42045,12.42045 0 0 0 2.25855,2.56568 15.682275,15.682275 0 0 0 1.62382,1.3734 c -0.63,0.39532 -1.21747,0.83475 -1.80022,1.26 -1.5435,1.16707 -3.0051,3.07912 -2.25855,5.24317 0.74655,2.16405 3.17362,2.7846 5.20537,2.9547 a 21.226275,21.226275 0 0 0 5.53298,-0.42682 c 1.3734,-0.25043 2.772,-0.36383 4.1643,-0.49613 0.57645,-0.0567 1.14187,-0.1575 1.7325,-0.1701 a 3.324825,3.324825 0 0 1 2.6838,1.00643 2.0979,2.0979 0 0 1 0.17797,0.315 v 0.0157 c 1.18125,2.898 -3.48075,4.16902 -7.02922,4.5927 -1.9908,0.23782 -6.4575,0.55912 -9.54923,0.33547 -0.1071,2.08373 -1.01587,3.92018 -2.47905,5.12663 2.47905,0 6.06533,-0.0189 8.1144,-0.14333 1.74825,-0.10552 3.4461,-0.1575 5.26365,-0.42367 6.3,-0.80798 11.2833,-4.13753 11.2833,-8.0325 -0.006,-4.5045 -3.7989,-7.9191 -10.22332,-7.01663 z m -8.73653,-20.20253 a 6.7725,6.7725 0 0 1 5.15655,-2.07585 6.41025,6.41025 0 0 1 4.87305,2.07585 7.0875,7.0875 0 0 1 1.95143,5.01795 c 0,2.29635 -0.63,4.85415 -1.80653,6.27323 a 6.235425,6.235425 0 0 1 -5.01795,2.14515 6.55515,6.55515 0 0 1 -5.18805,-2.17823 c -1.26,-1.4553 -1.91992,-3.99577 -1.91992,-6.21022 a 7.0308,7.0308 0 0 1 1.95142,-5.04788 z"
     style="fill:#ffffff;fill-opacity:1;stroke-width:0.1575"
     id="path40-0"
     inkscape:label="slingwhite"
     sodipodi:insensitive="true" />
  <path
     d="m 418.1245,221.11443 c -0.90878,0.1071 -1.81283,0.25042 -2.7153,0.38902 -2.00655,0.315 -4.00838,0.71505 -6.02123,0.98438 -0.63,0.0819 -1.4553,0.1701 -1.88212,-0.40793 -0.59535,-0.87255 0.93397,-1.84432 1.4616,-2.23335 0.63,-0.46462 1.93882,-1.04107 2.01915,-1.12297 a 10.620225,10.620225 0 0 1 1.15447,0.0819 15.09795,15.09795 0 0 0 8.25458,-1.3104 12.54645,12.54645 0 0 0 2.835,-1.88213 9.703575,9.703575 0 0 0 2.08215,-2.65545 14.504175,14.504175 0 0 0 1.16077,-3.71385 17.7471,17.7471 0 0 0 0.25673,-4.07137 11.823525,11.823525 0 0 0 -0.70875,-3.44295 20.50965,20.50965 0 0 0 -1.4427,-2.7468 l 3.06652,-3.09173 V 175 H 332.098 q -5.23058,0.1071 -8.6058,3.22403 a 10.61865,10.61865 0 0 0 -3.48705,8.15377 12.8142,12.8142 0 0 0 1.78762,6.90008 q 1.78763,2.8728 6.27323,4.96755 l 3.58155,1.67423 q 4.78642,2.24595 5.97082,4.1454 a 7.621425,7.621425 0 0 1 1.18598,4.11547 6.273225,6.273225 0 0 1 -2.13885,4.8825 8.153775,8.153775 0 0 1 -5.6448,1.91362 14.608125,14.608125 0 0 1 -4.49663,-0.82214 15.00975,15.00975 0 0 1 -4.18005,-2.07743 l -2.205,5.5062 a 17.726625,17.726625 0 0 0 10.0359,2.7531 q 6.67958,0 10.66275,-3.44295 a 10.66275,10.66275 0 0 0 3.95168,-8.38057 q 0,-4.54703 -1.81913,-7.52693 -1.81912,-2.9799 -6.33465,-5.06835 l -3.63825,-1.67422 a 26.26785,26.26785 0 0 1 -4.61632,-2.60348 6.37245,6.37245 0 0 1 -1.75928,-2.30737 7.2135,7.2135 0 0 1 -0.63,-3.05393 5.985,5.985 0 0 1 1.76558,-4.4541 5.476275,5.476275 0 0 1 4.3155,-1.88212 h 90.6255 v 13.91197 l -1.84433,1.88213 a 4.4604,4.4604 0 0 0 -0.86625,-0.45203 15.14205,15.14205 0 0 0 -5.16757,-1.06942 14.708925,14.708925 0 0 0 -5.24318,0.68985 12.1275,12.1275 0 0 0 -4.23045,2.80822 12.746475,12.746475 0 0 0 -2.3625,3.41775 13.72455,13.72455 0 0 0 -1.07887,4.095 13.404825,13.404825 0 0 0 0.1575,4.2021 11.873925,11.873925 0 0 0 1.3608,3.60675 12.42045,12.42045 0 0 0 2.25855,2.56568 15.682275,15.682275 0 0 0 1.62382,1.3734 c -0.63,0.39532 -1.21747,0.83475 -1.80022,1.26 -1.5435,1.16707 -3.0051,3.07912 -2.25855,5.24317 0.74655,2.16405 3.17362,2.7846 5.20537,2.9547 a 21.226275,21.226275 0 0 0 5.53298,-0.42682 c 1.3734,-0.25043 2.772,-0.36383 4.1643,-0.49613 0.57645,-0.0567 1.14187,-0.1575 1.7325,-0.1701 a 3.324825,3.324825 0 0 1 2.6838,1.00643 2.0979,2.0979 0 0 1 0.17797,0.315 v 0.0157 c 1.18125,2.898 -3.48075,4.16902 -7.02922,4.5927 -1.9908,0.23782 -6.4575,0.55912 -9.54923,0.33547 -0.1071,2.08373 -1.01587,3.92018 -2.47905,5.12663 2.47905,0 6.06533,-0.0189 8.1144,-0.14333 1.74825,-0.10552 3.4461,-0.1575 5.26365,-0.42367 6.3,-0.80798 11.2833,-4.13753 11.2833,-8.0325 -0.006,-4.5045 -3.7989,-7.9191 -10.22332,-7.01663 z m -8.73653,-20.20253 a 6.7725,6.7725 0 0 1 5.15655,-2.07585 6.41025,6.41025 0 0 1 4.87305,2.07585 7.0875,7.0875 0 0 1 1.95143,5.01795 c 0,2.29635 -0.63,4.85415 -1.80653,6.27323 a 6.235425,6.235425 0 0 1 -5.01795,2.14515 6.55515,6.55515 0 0 1 -5.18805,-2.17823 c -1.26,-1.4553 -1.91992,-3.99577 -1.91992,-6.21022 a 7.0308,7.0308 0 0 1 1.95142,-5.04788 z"
     style="fill:#ffffff;fill-opacity:1;stroke-width:0.1575"
     id="path40-0-0"
     inkscape:label="slingwhite2"
     clip-path="url(#clipPath43)"
     transform="translate(4,-20)" />
  <g
     id="g43"
     inkscape:label="slingblue"
     style="display:inline"
     sodipodi:insensitive="true">
    <path
       d="m 357.7865,192.79608 v -25.932 l -5.496,-0.048 v 28.353 q 0,5.0835 3.7395,5.0835 c 2.055,0 2.832,-0.789 3.6795,-2.3895 -1.7325,-0.5265 -1.923,-2.223 -1.923,-5.067 z"
       style="fill:#00678c;stroke-width:0.15"
       id="path11" />
    <polygon
       points="275.98,158.86 275.98,283.36 311.94,283.36 311.94,129.39 260.96,129.39 260.96,158.86 "
       style="fill:#00678c"
       id="polygon11"
       transform="matrix(0.15,0,0,0.15,324.275,157.41408)" />
    <path
       d="m 368.42,167.87358 a 2.9865,2.9865 0 0 0 -2.187,0.9135 3.15,3.15 0 0 0 0,4.4205 3.0645,3.0645 0 0 0 4.3335,0.039 l 0.039,-0.039 a 3.15,3.15 0 0 0 0,-4.4205 2.9865,2.9865 0 0 0 -2.1855,-0.9135 z"
       style="fill:#00678c;stroke-width:0.15"
       id="path12" />
    <path
       d="m 388.946,176.30358 q -4.2885,0 -6.4875,2.55 v -2.127 h -4.893 v 22.851 h 5.376 v -16.5135 a 5.85,5.85 0 0 1 2.121,-1.65 5.7705,5.7705 0 0 1 2.5335,-0.663 q 2.562,0 3.6975,1.35 1.1355,1.35 1.128,4.263 v 13.2 h 5.376 v -14.001 q 0,-4.3725 -2.3895,-6.816 -2.3895,-2.4435 -6.462,-2.4435 z"
       style="fill:#00678c;stroke-width:0.15"
       id="path13" />
    <path
       d="m 417.7445,201.33258 c -0.8655,0.102 -1.7265,0.2385 -2.586,0.3705 -1.911,0.3 -3.8175,0.681 -5.7345,0.9375 -0.6,0.078 -1.386,0.162 -1.7925,-0.3885 -0.567,-0.831 0.8895,-1.7565 1.392,-2.127 0.6,-0.4425 1.8465,-0.9915 1.923,-1.0695 a 10.1145,10.1145 0 0 1 1.0995,0.078 14.379,14.379 0 0 0 7.8615,-1.248 11.949,11.949 0 0 0 2.7,-1.7925 9.2415,9.2415 0 0 0 1.983,-2.529 13.8135,13.8135 0 0 0 1.1055,-3.537 16.902,16.902 0 0 0 0.2445,-3.8775 11.2605,11.2605 0 0 0 -0.675,-3.279 19.533,19.533 0 0 0 -1.374,-2.616 l 2.9205,-2.9445 v -19.896 h -90.9975 q -4.9815,0.102 -8.196,3.0705 a 10.113,10.113 0 0 0 -3.321,7.7655 12.204,12.204 0 0 0 1.7025,6.5715 q 1.7025,2.736 5.9745,4.731 l 3.411,1.5945 q 4.5585,2.139 5.6865,3.948 a 7.2585,7.2585 0 0 1 1.1295,3.9195 5.9745,5.9745 0 0 1 -2.037,4.65 7.7655,7.7655 0 0 1 -5.376,1.8225 13.9125,13.9125 0 0 1 -4.2825,-0.783 14.295,14.295 0 0 1 -3.981,-1.9785 l -2.1,5.244 a 16.8825,16.8825 0 0 0 9.558,2.622 q 6.3615,0 10.155,-3.279 a 10.155,10.155 0 0 0 3.7635,-7.9815 q 0,-4.3305 -1.7325,-7.1685 -1.7325,-2.838 -6.033,-4.827 l -3.465,-1.5945 a 25.017,25.017 0 0 1 -4.3965,-2.4795 6.069,6.069 0 0 1 -1.6755,-2.1975 6.87,6.87 0 0 1 -0.6,-2.9085 5.7,5.7 0 0 1 1.6815,-4.242 5.2155,5.2155 0 0 1 4.11,-1.7925 h 86.31 v 13.2495 l -1.7565,1.7925 a 4.248,4.248 0 0 0 -0.825,-0.4305 14.421,14.421 0 0 0 -4.9215,-1.0185 14.0085,14.0085 0 0 0 -4.9935,0.657 11.55,11.55 0 0 0 -4.029,2.6745 12.1395,12.1395 0 0 0 -2.25,3.255 13.071,13.071 0 0 0 -1.0275,3.9 12.7665,12.7665 0 0 0 0.15,4.002 11.3085,11.3085 0 0 0 1.296,3.435 11.829,11.829 0 0 0 2.151,2.4435 14.9355,14.9355 0 0 0 1.5465,1.308 c -0.6,0.3765 -1.1595,0.795 -1.7145,1.2 -1.47,1.1115 -2.862,2.9325 -2.151,4.9935 0.711,2.061 3.0225,2.652 4.9575,2.814 a 20.2155,20.2155 0 0 0 5.2695,-0.4065 c 1.308,-0.2385 2.64,-0.3465 3.966,-0.4725 0.549,-0.054 1.0875,-0.15 1.65,-0.162 a 3.1665,3.1665 0 0 1 2.556,0.9585 1.998,1.998 0 0 1 0.1695,0.3 v 0.015 c 1.125,2.76 -3.315,3.9705 -6.6945,4.374 -1.896,0.2265 -6.15,0.5325 -9.0945,0.3195 -0.102,1.9845 -0.9675,3.7335 -2.361,4.8825 2.361,0 5.7765,-0.018 7.728,-0.1365 1.665,-0.1005 3.282,-0.15 5.013,-0.4035 6,-0.7695 10.746,-3.9405 10.746,-7.65 -0.006,-4.29 -3.618,-7.542 -9.7365,-6.6825 z m -8.3205,-19.2405 a 6.45,6.45 0 0 1 4.911,-1.977 6.105,6.105 0 0 1 4.641,1.977 6.75,6.75 0 0 1 1.8585,4.779 c 0,2.187 -0.6,4.623 -1.7205,5.9745 a 5.9385,5.9385 0 0 1 -4.779,2.043 6.243,6.243 0 0 1 -4.941,-2.0745 c -1.2,-1.386 -1.8285,-3.8055 -1.8285,-5.9145 a 6.696,6.696 0 0 1 1.8585,-4.8075 z"
       style="display:inline;fill:#00678c;stroke-width:0.15"
       id="path40"
       sodipodi:insensitive="true" />
  </g>
  <g
     id="g42"
     transform="translate(-18.739078,5.6847695)"
     inkscape:label="TM">
    <path
       d="m 433.499,157.97508 h -1.6845 v 4.539 h -0.6 v -4.539 h -1.6905 v -0.561 h 3.975 z"
       style="fill:#6d6e71;stroke-width:0.15"
       id="path41" />
    <path
       d="m 434.2115,157.41408 h 0.9 l 1.728,3.996 h 0.015 l 1.7415,-3.996 h 0.879 v 5.1 h -0.6 v -4.2795 h -0.015 l -1.833,4.2795 h -0.3675 l -1.8345,-4.2795 h -0.0135 v 4.2795 h -0.6 z"
       style="fill:#6d6e71;stroke-width:0.15"
       id="path42" />
  </g>
  <metadata
     id="metadata44">
    <rdf:RDF>
      <cc:Work
         rdf:about="">
        <dc:title>Logo - Close Crop</dc:title>
      </cc:Work>
    </rdf:RDF>
  </metadata>
</svg>
